<mxfile host="app.diagrams.net" agent="Mozilla/5.0 (Windows NT 10.0; Win64; x64) AppleWebKit/537.36 (KHTML, like Gecko) Chrome/133.0.0.0 Safari/537.36 Edg/133.0.0.0" version="26.2.8">
  <diagram name="第 1 页" id="Wae8W_KRl8ywe-Jb29r9">
    <mxGraphModel dx="2840" dy="1967" grid="1" gridSize="10" guides="1" tooltips="1" connect="1" arrows="1" fold="1" page="1" pageScale="1" pageWidth="827" pageHeight="1169" math="0" shadow="0">
      <root>
        <mxCell id="0" />
        <mxCell id="1" parent="0" />
        <mxCell id="nXGSX_u4DIBoH6PeZEtl-1" value="1" style="ellipse;whiteSpace=wrap;html=1;aspect=fixed;fillColor=#f5f5f5;strokeColor=#666666;gradientColor=#b3b3b3;" vertex="1" parent="1">
          <mxGeometry x="20" y="190" width="40" height="40" as="geometry" />
        </mxCell>
        <mxCell id="nXGSX_u4DIBoH6PeZEtl-2" value="insert {1，5，6，7，8，9，10，11，12，13，14，15}" style="rounded=0;whiteSpace=wrap;html=1;" vertex="1" parent="1">
          <mxGeometry x="930" y="30" width="325" height="40" as="geometry" />
        </mxCell>
        <mxCell id="nXGSX_u4DIBoH6PeZEtl-3" value="" style="endArrow=classic;html=1;rounded=0;" edge="1" parent="1">
          <mxGeometry width="50" height="50" relative="1" as="geometry">
            <mxPoint x="80" y="209.5" as="sourcePoint" />
            <mxPoint x="160" y="210" as="targetPoint" />
          </mxGeometry>
        </mxCell>
        <mxCell id="nXGSX_u4DIBoH6PeZEtl-4" value="insert(5)" style="edgeLabel;html=1;align=center;verticalAlign=middle;resizable=0;points=[];" vertex="1" connectable="0" parent="nXGSX_u4DIBoH6PeZEtl-3">
          <mxGeometry x="-0.32" relative="1" as="geometry">
            <mxPoint x="10" as="offset" />
          </mxGeometry>
        </mxCell>
        <mxCell id="nXGSX_u4DIBoH6PeZEtl-5" value="1" style="ellipse;whiteSpace=wrap;html=1;aspect=fixed;fillColor=#f5f5f5;strokeColor=#666666;gradientColor=#b3b3b3;" vertex="1" parent="1">
          <mxGeometry x="190" y="150" width="40" height="40" as="geometry" />
        </mxCell>
        <mxCell id="nXGSX_u4DIBoH6PeZEtl-7" value="" style="endArrow=classic;html=1;rounded=0;" edge="1" parent="1">
          <mxGeometry width="50" height="50" relative="1" as="geometry">
            <mxPoint x="230" y="180" as="sourcePoint" />
            <mxPoint x="270" y="215" as="targetPoint" />
          </mxGeometry>
        </mxCell>
        <mxCell id="nXGSX_u4DIBoH6PeZEtl-10" value="5" style="ellipse;whiteSpace=wrap;html=1;aspect=fixed;fillColor=#f8cecc;strokeColor=#b85450;gradientColor=#ea6b66;" vertex="1" parent="1">
          <mxGeometry x="260" y="210" width="40" height="40" as="geometry" />
        </mxCell>
        <mxCell id="nXGSX_u4DIBoH6PeZEtl-11" value="" style="endArrow=classic;html=1;rounded=0;" edge="1" parent="1">
          <mxGeometry width="50" height="50" relative="1" as="geometry">
            <mxPoint x="320" y="209.5" as="sourcePoint" />
            <mxPoint x="400" y="210" as="targetPoint" />
          </mxGeometry>
        </mxCell>
        <mxCell id="nXGSX_u4DIBoH6PeZEtl-12" value="insert(6)" style="edgeLabel;html=1;align=center;verticalAlign=middle;resizable=0;points=[];" vertex="1" connectable="0" parent="nXGSX_u4DIBoH6PeZEtl-11">
          <mxGeometry x="-0.32" relative="1" as="geometry">
            <mxPoint x="10" as="offset" />
          </mxGeometry>
        </mxCell>
        <mxCell id="nXGSX_u4DIBoH6PeZEtl-13" value="5" style="ellipse;whiteSpace=wrap;html=1;aspect=fixed;fillColor=#f5f5f5;strokeColor=#666666;gradientColor=#b3b3b3;" vertex="1" parent="1">
          <mxGeometry x="490" y="150" width="40" height="40" as="geometry" />
        </mxCell>
        <mxCell id="nXGSX_u4DIBoH6PeZEtl-14" value="" style="endArrow=classic;html=1;rounded=0;" edge="1" parent="1">
          <mxGeometry width="50" height="50" relative="1" as="geometry">
            <mxPoint x="530" y="180" as="sourcePoint" />
            <mxPoint x="570" y="215" as="targetPoint" />
          </mxGeometry>
        </mxCell>
        <mxCell id="nXGSX_u4DIBoH6PeZEtl-15" value="6" style="ellipse;whiteSpace=wrap;html=1;aspect=fixed;fillColor=#f8cecc;strokeColor=#b85450;gradientColor=#ea6b66;" vertex="1" parent="1">
          <mxGeometry x="560" y="210" width="40" height="40" as="geometry" />
        </mxCell>
        <mxCell id="nXGSX_u4DIBoH6PeZEtl-16" value="" style="endArrow=classic;html=1;rounded=0;" edge="1" parent="1">
          <mxGeometry width="50" height="50" relative="1" as="geometry">
            <mxPoint x="490" y="180" as="sourcePoint" />
            <mxPoint x="450" y="215" as="targetPoint" />
          </mxGeometry>
        </mxCell>
        <mxCell id="nXGSX_u4DIBoH6PeZEtl-17" value="1" style="ellipse;whiteSpace=wrap;html=1;aspect=fixed;fillColor=#f8cecc;strokeColor=#b85450;gradientColor=#ea6b66;" vertex="1" parent="1">
          <mxGeometry x="420" y="210" width="40" height="40" as="geometry" />
        </mxCell>
        <mxCell id="nXGSX_u4DIBoH6PeZEtl-18" value="" style="endArrow=classic;html=1;rounded=0;" edge="1" parent="1">
          <mxGeometry width="50" height="50" relative="1" as="geometry">
            <mxPoint x="600" y="199.5" as="sourcePoint" />
            <mxPoint x="680" y="200" as="targetPoint" />
          </mxGeometry>
        </mxCell>
        <mxCell id="nXGSX_u4DIBoH6PeZEtl-19" value="insert(7)" style="edgeLabel;html=1;align=center;verticalAlign=middle;resizable=0;points=[];" vertex="1" connectable="0" parent="nXGSX_u4DIBoH6PeZEtl-18">
          <mxGeometry x="-0.32" relative="1" as="geometry">
            <mxPoint x="10" as="offset" />
          </mxGeometry>
        </mxCell>
        <mxCell id="nXGSX_u4DIBoH6PeZEtl-20" value="5" style="ellipse;whiteSpace=wrap;html=1;aspect=fixed;fillColor=#f5f5f5;strokeColor=#666666;gradientColor=#b3b3b3;" vertex="1" parent="1">
          <mxGeometry x="770" y="140" width="40" height="40" as="geometry" />
        </mxCell>
        <mxCell id="nXGSX_u4DIBoH6PeZEtl-21" value="" style="endArrow=classic;html=1;rounded=0;" edge="1" parent="1">
          <mxGeometry width="50" height="50" relative="1" as="geometry">
            <mxPoint x="810" y="170" as="sourcePoint" />
            <mxPoint x="850" y="205" as="targetPoint" />
          </mxGeometry>
        </mxCell>
        <mxCell id="nXGSX_u4DIBoH6PeZEtl-22" value="6" style="ellipse;whiteSpace=wrap;html=1;aspect=fixed;fillColor=#f5f5f5;strokeColor=#666666;gradientColor=#b3b3b3;" vertex="1" parent="1">
          <mxGeometry x="840" y="200" width="40" height="40" as="geometry" />
        </mxCell>
        <mxCell id="nXGSX_u4DIBoH6PeZEtl-23" value="" style="endArrow=classic;html=1;rounded=0;" edge="1" parent="1">
          <mxGeometry width="50" height="50" relative="1" as="geometry">
            <mxPoint x="770" y="170" as="sourcePoint" />
            <mxPoint x="730" y="205" as="targetPoint" />
          </mxGeometry>
        </mxCell>
        <mxCell id="nXGSX_u4DIBoH6PeZEtl-24" value="1" style="ellipse;whiteSpace=wrap;html=1;aspect=fixed;fillColor=#f5f5f5;strokeColor=#666666;gradientColor=#b3b3b3;" vertex="1" parent="1">
          <mxGeometry x="700" y="200" width="40" height="40" as="geometry" />
        </mxCell>
        <mxCell id="nXGSX_u4DIBoH6PeZEtl-25" value="" style="endArrow=classic;html=1;rounded=0;" edge="1" parent="1">
          <mxGeometry width="50" height="50" relative="1" as="geometry">
            <mxPoint x="880" y="230" as="sourcePoint" />
            <mxPoint x="920" y="265" as="targetPoint" />
          </mxGeometry>
        </mxCell>
        <mxCell id="nXGSX_u4DIBoH6PeZEtl-26" value="7" style="ellipse;whiteSpace=wrap;html=1;aspect=fixed;fillColor=#f8cecc;strokeColor=#b85450;gradientColor=#ea6b66;" vertex="1" parent="1">
          <mxGeometry x="910" y="260" width="40" height="40" as="geometry" />
        </mxCell>
        <mxCell id="nXGSX_u4DIBoH6PeZEtl-29" value="" style="endArrow=classic;html=1;rounded=0;" edge="1" parent="1">
          <mxGeometry width="50" height="50" relative="1" as="geometry">
            <mxPoint x="960" y="199.5" as="sourcePoint" />
            <mxPoint x="1040" y="200" as="targetPoint" />
          </mxGeometry>
        </mxCell>
        <mxCell id="nXGSX_u4DIBoH6PeZEtl-30" value="insert(8)" style="edgeLabel;html=1;align=center;verticalAlign=middle;resizable=0;points=[];" vertex="1" connectable="0" parent="nXGSX_u4DIBoH6PeZEtl-29">
          <mxGeometry x="-0.32" relative="1" as="geometry">
            <mxPoint x="10" as="offset" />
          </mxGeometry>
        </mxCell>
        <mxCell id="nXGSX_u4DIBoH6PeZEtl-31" value="5" style="ellipse;whiteSpace=wrap;html=1;aspect=fixed;fillColor=#f5f5f5;strokeColor=#666666;gradientColor=#b3b3b3;" vertex="1" parent="1">
          <mxGeometry x="1150" y="140" width="40" height="40" as="geometry" />
        </mxCell>
        <mxCell id="nXGSX_u4DIBoH6PeZEtl-32" value="" style="endArrow=classic;html=1;rounded=0;" edge="1" parent="1">
          <mxGeometry width="50" height="50" relative="1" as="geometry">
            <mxPoint x="1190" y="170" as="sourcePoint" />
            <mxPoint x="1230" y="205" as="targetPoint" />
          </mxGeometry>
        </mxCell>
        <mxCell id="nXGSX_u4DIBoH6PeZEtl-33" value="7" style="ellipse;whiteSpace=wrap;html=1;aspect=fixed;fillColor=#f5f5f5;strokeColor=#666666;gradientColor=#b3b3b3;" vertex="1" parent="1">
          <mxGeometry x="1220" y="200" width="40" height="40" as="geometry" />
        </mxCell>
        <mxCell id="nXGSX_u4DIBoH6PeZEtl-34" value="" style="endArrow=classic;html=1;rounded=0;" edge="1" parent="1">
          <mxGeometry width="50" height="50" relative="1" as="geometry">
            <mxPoint x="1150" y="170" as="sourcePoint" />
            <mxPoint x="1110" y="205" as="targetPoint" />
          </mxGeometry>
        </mxCell>
        <mxCell id="nXGSX_u4DIBoH6PeZEtl-35" value="1" style="ellipse;whiteSpace=wrap;html=1;aspect=fixed;fillColor=#f5f5f5;strokeColor=#666666;gradientColor=#b3b3b3;" vertex="1" parent="1">
          <mxGeometry x="1080" y="200" width="40" height="40" as="geometry" />
        </mxCell>
        <mxCell id="nXGSX_u4DIBoH6PeZEtl-36" value="" style="endArrow=classic;html=1;rounded=0;" edge="1" parent="1">
          <mxGeometry width="50" height="50" relative="1" as="geometry">
            <mxPoint x="1260" y="230" as="sourcePoint" />
            <mxPoint x="1300" y="265" as="targetPoint" />
          </mxGeometry>
        </mxCell>
        <mxCell id="nXGSX_u4DIBoH6PeZEtl-37" value="8" style="ellipse;whiteSpace=wrap;html=1;aspect=fixed;fillColor=#f8cecc;strokeColor=#b85450;gradientColor=#ea6b66;" vertex="1" parent="1">
          <mxGeometry x="1290" y="260" width="40" height="40" as="geometry" />
        </mxCell>
        <mxCell id="nXGSX_u4DIBoH6PeZEtl-38" value="" style="endArrow=classic;html=1;rounded=0;" edge="1" parent="1">
          <mxGeometry width="50" height="50" relative="1" as="geometry">
            <mxPoint x="1220" y="230" as="sourcePoint" />
            <mxPoint x="1180" y="265" as="targetPoint" />
          </mxGeometry>
        </mxCell>
        <mxCell id="nXGSX_u4DIBoH6PeZEtl-39" value="6" style="ellipse;whiteSpace=wrap;html=1;aspect=fixed;fillColor=#f8cecc;strokeColor=#b85450;gradientColor=#ea6b66;" vertex="1" parent="1">
          <mxGeometry x="1150" y="260" width="40" height="40" as="geometry" />
        </mxCell>
        <mxCell id="nXGSX_u4DIBoH6PeZEtl-40" value="" style="endArrow=classic;html=1;rounded=0;" edge="1" parent="1">
          <mxGeometry width="50" height="50" relative="1" as="geometry">
            <mxPoint x="1330" y="199.5" as="sourcePoint" />
            <mxPoint x="1410" y="200" as="targetPoint" />
          </mxGeometry>
        </mxCell>
        <mxCell id="nXGSX_u4DIBoH6PeZEtl-41" value="insert(9)" style="edgeLabel;html=1;align=center;verticalAlign=middle;resizable=0;points=[];" vertex="1" connectable="0" parent="nXGSX_u4DIBoH6PeZEtl-40">
          <mxGeometry x="-0.32" relative="1" as="geometry">
            <mxPoint x="13" as="offset" />
          </mxGeometry>
        </mxCell>
        <mxCell id="nXGSX_u4DIBoH6PeZEtl-42" value="5" style="ellipse;whiteSpace=wrap;html=1;aspect=fixed;fillColor=#f5f5f5;strokeColor=#666666;gradientColor=#b3b3b3;" vertex="1" parent="1">
          <mxGeometry x="1520" y="100" width="40" height="40" as="geometry" />
        </mxCell>
        <mxCell id="nXGSX_u4DIBoH6PeZEtl-43" value="" style="endArrow=classic;html=1;rounded=0;" edge="1" parent="1">
          <mxGeometry width="50" height="50" relative="1" as="geometry">
            <mxPoint x="1560" y="130" as="sourcePoint" />
            <mxPoint x="1600" y="165" as="targetPoint" />
          </mxGeometry>
        </mxCell>
        <mxCell id="nXGSX_u4DIBoH6PeZEtl-44" value="7" style="ellipse;whiteSpace=wrap;html=1;aspect=fixed;fillColor=#f8cecc;strokeColor=#b85450;gradientColor=#ea6b66;" vertex="1" parent="1">
          <mxGeometry x="1590" y="160" width="40" height="40" as="geometry" />
        </mxCell>
        <mxCell id="nXGSX_u4DIBoH6PeZEtl-45" value="" style="endArrow=classic;html=1;rounded=0;" edge="1" parent="1">
          <mxGeometry width="50" height="50" relative="1" as="geometry">
            <mxPoint x="1520" y="130" as="sourcePoint" />
            <mxPoint x="1480" y="165" as="targetPoint" />
          </mxGeometry>
        </mxCell>
        <mxCell id="nXGSX_u4DIBoH6PeZEtl-46" value="1" style="ellipse;whiteSpace=wrap;html=1;aspect=fixed;fillColor=#f5f5f5;strokeColor=#666666;gradientColor=#b3b3b3;" vertex="1" parent="1">
          <mxGeometry x="1450" y="160" width="40" height="40" as="geometry" />
        </mxCell>
        <mxCell id="nXGSX_u4DIBoH6PeZEtl-47" value="" style="endArrow=classic;html=1;rounded=0;" edge="1" parent="1">
          <mxGeometry width="50" height="50" relative="1" as="geometry">
            <mxPoint x="1630" y="190" as="sourcePoint" />
            <mxPoint x="1670" y="225" as="targetPoint" />
          </mxGeometry>
        </mxCell>
        <mxCell id="nXGSX_u4DIBoH6PeZEtl-48" value="8" style="ellipse;whiteSpace=wrap;html=1;aspect=fixed;fillColor=#f5f5f5;strokeColor=#666666;gradientColor=#b3b3b3;" vertex="1" parent="1">
          <mxGeometry x="1660" y="220" width="40" height="40" as="geometry" />
        </mxCell>
        <mxCell id="nXGSX_u4DIBoH6PeZEtl-49" value="" style="endArrow=classic;html=1;rounded=0;" edge="1" parent="1">
          <mxGeometry width="50" height="50" relative="1" as="geometry">
            <mxPoint x="1590" y="190" as="sourcePoint" />
            <mxPoint x="1550" y="225" as="targetPoint" />
          </mxGeometry>
        </mxCell>
        <mxCell id="nXGSX_u4DIBoH6PeZEtl-50" value="6" style="ellipse;whiteSpace=wrap;html=1;aspect=fixed;fillColor=#f5f5f5;strokeColor=#666666;gradientColor=#b3b3b3;" vertex="1" parent="1">
          <mxGeometry x="1520" y="220" width="40" height="40" as="geometry" />
        </mxCell>
        <mxCell id="nXGSX_u4DIBoH6PeZEtl-51" value="" style="endArrow=classic;html=1;rounded=0;" edge="1" parent="1">
          <mxGeometry width="50" height="50" relative="1" as="geometry">
            <mxPoint x="1700" y="250" as="sourcePoint" />
            <mxPoint x="1740" y="285" as="targetPoint" />
          </mxGeometry>
        </mxCell>
        <mxCell id="nXGSX_u4DIBoH6PeZEtl-52" value="9" style="ellipse;whiteSpace=wrap;html=1;aspect=fixed;fillColor=#f8cecc;strokeColor=#b85450;gradientColor=#ea6b66;" vertex="1" parent="1">
          <mxGeometry x="1730" y="280" width="40" height="40" as="geometry" />
        </mxCell>
        <mxCell id="nXGSX_u4DIBoH6PeZEtl-53" value="" style="endArrow=classic;html=1;rounded=0;" edge="1" parent="1">
          <mxGeometry width="50" height="50" relative="1" as="geometry">
            <mxPoint x="1760" y="199.5" as="sourcePoint" />
            <mxPoint x="1840" y="200" as="targetPoint" />
          </mxGeometry>
        </mxCell>
        <mxCell id="nXGSX_u4DIBoH6PeZEtl-54" value="insert(10)" style="edgeLabel;html=1;align=center;verticalAlign=middle;resizable=0;points=[];" vertex="1" connectable="0" parent="nXGSX_u4DIBoH6PeZEtl-53">
          <mxGeometry x="-0.32" relative="1" as="geometry">
            <mxPoint x="13" as="offset" />
          </mxGeometry>
        </mxCell>
        <mxCell id="nXGSX_u4DIBoH6PeZEtl-55" value="5" style="ellipse;whiteSpace=wrap;html=1;aspect=fixed;fillColor=#f5f5f5;strokeColor=#666666;gradientColor=#b3b3b3;" vertex="1" parent="1">
          <mxGeometry x="1978" y="110" width="40" height="40" as="geometry" />
        </mxCell>
        <mxCell id="nXGSX_u4DIBoH6PeZEtl-56" value="" style="endArrow=classic;html=1;rounded=0;" edge="1" parent="1">
          <mxGeometry width="50" height="50" relative="1" as="geometry">
            <mxPoint x="2018" y="140" as="sourcePoint" />
            <mxPoint x="2058" y="175" as="targetPoint" />
          </mxGeometry>
        </mxCell>
        <mxCell id="nXGSX_u4DIBoH6PeZEtl-57" value="7" style="ellipse;whiteSpace=wrap;html=1;aspect=fixed;fillColor=#f8cecc;strokeColor=#b85450;gradientColor=#ea6b66;" vertex="1" parent="1">
          <mxGeometry x="2048" y="170" width="40" height="40" as="geometry" />
        </mxCell>
        <mxCell id="nXGSX_u4DIBoH6PeZEtl-58" value="" style="endArrow=classic;html=1;rounded=0;" edge="1" parent="1">
          <mxGeometry width="50" height="50" relative="1" as="geometry">
            <mxPoint x="1978" y="140" as="sourcePoint" />
            <mxPoint x="1938" y="175" as="targetPoint" />
          </mxGeometry>
        </mxCell>
        <mxCell id="nXGSX_u4DIBoH6PeZEtl-59" value="1" style="ellipse;whiteSpace=wrap;html=1;aspect=fixed;fillColor=#f5f5f5;strokeColor=#666666;gradientColor=#b3b3b3;" vertex="1" parent="1">
          <mxGeometry x="1908" y="170" width="40" height="40" as="geometry" />
        </mxCell>
        <mxCell id="nXGSX_u4DIBoH6PeZEtl-60" value="" style="endArrow=classic;html=1;rounded=0;" edge="1" parent="1">
          <mxGeometry width="50" height="50" relative="1" as="geometry">
            <mxPoint x="2088" y="200" as="sourcePoint" />
            <mxPoint x="2128" y="235" as="targetPoint" />
          </mxGeometry>
        </mxCell>
        <mxCell id="nXGSX_u4DIBoH6PeZEtl-61" value="9" style="ellipse;whiteSpace=wrap;html=1;aspect=fixed;fillColor=#f5f5f5;strokeColor=#666666;gradientColor=#b3b3b3;" vertex="1" parent="1">
          <mxGeometry x="2118" y="230" width="40" height="40" as="geometry" />
        </mxCell>
        <mxCell id="nXGSX_u4DIBoH6PeZEtl-62" value="" style="endArrow=classic;html=1;rounded=0;" edge="1" parent="1">
          <mxGeometry width="50" height="50" relative="1" as="geometry">
            <mxPoint x="2048" y="200" as="sourcePoint" />
            <mxPoint x="2008" y="235" as="targetPoint" />
          </mxGeometry>
        </mxCell>
        <mxCell id="nXGSX_u4DIBoH6PeZEtl-63" value="6" style="ellipse;whiteSpace=wrap;html=1;aspect=fixed;fillColor=#f5f5f5;strokeColor=#666666;gradientColor=#b3b3b3;" vertex="1" parent="1">
          <mxGeometry x="1978" y="230" width="40" height="40" as="geometry" />
        </mxCell>
        <mxCell id="nXGSX_u4DIBoH6PeZEtl-64" value="" style="endArrow=classic;html=1;rounded=0;" edge="1" parent="1">
          <mxGeometry width="50" height="50" relative="1" as="geometry">
            <mxPoint x="2158" y="260" as="sourcePoint" />
            <mxPoint x="2198" y="295" as="targetPoint" />
          </mxGeometry>
        </mxCell>
        <mxCell id="nXGSX_u4DIBoH6PeZEtl-65" value="10" style="ellipse;whiteSpace=wrap;html=1;aspect=fixed;fillColor=#f8cecc;strokeColor=#b85450;gradientColor=#ea6b66;" vertex="1" parent="1">
          <mxGeometry x="2188" y="290" width="40" height="40" as="geometry" />
        </mxCell>
        <mxCell id="nXGSX_u4DIBoH6PeZEtl-69" value="" style="endArrow=classic;html=1;rounded=0;" edge="1" parent="1">
          <mxGeometry width="50" height="50" relative="1" as="geometry">
            <mxPoint x="2118" y="260" as="sourcePoint" />
            <mxPoint x="2078" y="295" as="targetPoint" />
          </mxGeometry>
        </mxCell>
        <mxCell id="nXGSX_u4DIBoH6PeZEtl-70" value="8" style="ellipse;whiteSpace=wrap;html=1;aspect=fixed;fillColor=#f8cecc;strokeColor=#b85450;gradientColor=#ea6b66;" vertex="1" parent="1">
          <mxGeometry x="2048" y="290" width="40" height="40" as="geometry" />
        </mxCell>
        <mxCell id="nXGSX_u4DIBoH6PeZEtl-71" value="" style="endArrow=classic;html=1;rounded=0;" edge="1" parent="1">
          <mxGeometry width="50" height="50" relative="1" as="geometry">
            <mxPoint x="40" y="469.5" as="sourcePoint" />
            <mxPoint x="120" y="470" as="targetPoint" />
          </mxGeometry>
        </mxCell>
        <mxCell id="nXGSX_u4DIBoH6PeZEtl-72" value="insert(11)" style="edgeLabel;html=1;align=center;verticalAlign=middle;resizable=0;points=[];" vertex="1" connectable="0" parent="nXGSX_u4DIBoH6PeZEtl-71">
          <mxGeometry x="-0.32" relative="1" as="geometry">
            <mxPoint x="10" as="offset" />
          </mxGeometry>
        </mxCell>
        <mxCell id="nXGSX_u4DIBoH6PeZEtl-73" value="5" style="ellipse;whiteSpace=wrap;html=1;aspect=fixed;fillColor=#f8cecc;strokeColor=#b85450;gradientColor=#ea6b66;" vertex="1" parent="1">
          <mxGeometry x="210" y="450" width="40" height="40" as="geometry" />
        </mxCell>
        <mxCell id="nXGSX_u4DIBoH6PeZEtl-74" value="" style="endArrow=classic;html=1;rounded=0;" edge="1" parent="1">
          <mxGeometry width="50" height="50" relative="1" as="geometry">
            <mxPoint x="250" y="480" as="sourcePoint" />
            <mxPoint x="270" y="515" as="targetPoint" />
          </mxGeometry>
        </mxCell>
        <mxCell id="nXGSX_u4DIBoH6PeZEtl-75" value="7" style="ellipse;whiteSpace=wrap;html=1;aspect=fixed;fillColor=#f5f5f5;strokeColor=#666666;gradientColor=#b3b3b3;" vertex="1" parent="1">
          <mxGeometry x="290" y="390" width="40" height="40" as="geometry" />
        </mxCell>
        <mxCell id="nXGSX_u4DIBoH6PeZEtl-76" value="" style="endArrow=classic;html=1;rounded=0;" edge="1" parent="1">
          <mxGeometry width="50" height="50" relative="1" as="geometry">
            <mxPoint x="210" y="480" as="sourcePoint" />
            <mxPoint x="170" y="515" as="targetPoint" />
          </mxGeometry>
        </mxCell>
        <mxCell id="nXGSX_u4DIBoH6PeZEtl-77" value="1" style="ellipse;whiteSpace=wrap;html=1;aspect=fixed;fillColor=#f5f5f5;strokeColor=#666666;gradientColor=#b3b3b3;" vertex="1" parent="1">
          <mxGeometry x="140" y="510" width="40" height="40" as="geometry" />
        </mxCell>
        <mxCell id="nXGSX_u4DIBoH6PeZEtl-78" value="" style="endArrow=classic;html=1;rounded=0;" edge="1" parent="1">
          <mxGeometry width="50" height="50" relative="1" as="geometry">
            <mxPoint x="330" y="420" as="sourcePoint" />
            <mxPoint x="370" y="455" as="targetPoint" />
          </mxGeometry>
        </mxCell>
        <mxCell id="nXGSX_u4DIBoH6PeZEtl-79" value="9" style="ellipse;whiteSpace=wrap;html=1;aspect=fixed;fillColor=#f8cecc;strokeColor=#b85450;gradientColor=#ea6b66;" vertex="1" parent="1">
          <mxGeometry x="370" y="450" width="40" height="40" as="geometry" />
        </mxCell>
        <mxCell id="nXGSX_u4DIBoH6PeZEtl-80" value="" style="endArrow=classic;html=1;rounded=0;" edge="1" parent="1">
          <mxGeometry width="50" height="50" relative="1" as="geometry">
            <mxPoint x="290" y="420" as="sourcePoint" />
            <mxPoint x="250" y="455" as="targetPoint" />
          </mxGeometry>
        </mxCell>
        <mxCell id="nXGSX_u4DIBoH6PeZEtl-81" value="6" style="ellipse;whiteSpace=wrap;html=1;aspect=fixed;fillColor=#f5f5f5;strokeColor=#666666;gradientColor=#b3b3b3;" vertex="1" parent="1">
          <mxGeometry x="260" y="510" width="40" height="40" as="geometry" />
        </mxCell>
        <mxCell id="nXGSX_u4DIBoH6PeZEtl-82" value="" style="endArrow=classic;html=1;rounded=0;" edge="1" parent="1">
          <mxGeometry width="50" height="50" relative="1" as="geometry">
            <mxPoint x="410" y="480" as="sourcePoint" />
            <mxPoint x="450" y="515" as="targetPoint" />
          </mxGeometry>
        </mxCell>
        <mxCell id="nXGSX_u4DIBoH6PeZEtl-83" value="10" style="ellipse;whiteSpace=wrap;html=1;aspect=fixed;fillColor=#f5f5f5;strokeColor=#666666;gradientColor=#b3b3b3;" vertex="1" parent="1">
          <mxGeometry x="440" y="510" width="40" height="40" as="geometry" />
        </mxCell>
        <mxCell id="nXGSX_u4DIBoH6PeZEtl-84" value="" style="endArrow=classic;html=1;rounded=0;" edge="1" parent="1">
          <mxGeometry width="50" height="50" relative="1" as="geometry">
            <mxPoint x="370" y="480" as="sourcePoint" />
            <mxPoint x="350" y="515" as="targetPoint" />
          </mxGeometry>
        </mxCell>
        <mxCell id="nXGSX_u4DIBoH6PeZEtl-85" value="8" style="ellipse;whiteSpace=wrap;html=1;aspect=fixed;fillColor=#f5f5f5;strokeColor=#666666;gradientColor=#b3b3b3;" vertex="1" parent="1">
          <mxGeometry x="320" y="510" width="40" height="40" as="geometry" />
        </mxCell>
        <mxCell id="nXGSX_u4DIBoH6PeZEtl-86" value="" style="endArrow=classic;html=1;rounded=0;" edge="1" parent="1">
          <mxGeometry width="50" height="50" relative="1" as="geometry">
            <mxPoint x="480" y="540" as="sourcePoint" />
            <mxPoint x="520" y="575" as="targetPoint" />
          </mxGeometry>
        </mxCell>
        <mxCell id="nXGSX_u4DIBoH6PeZEtl-87" value="11" style="ellipse;whiteSpace=wrap;html=1;aspect=fixed;fillColor=#f8cecc;strokeColor=#b85450;gradientColor=#ea6b66;" vertex="1" parent="1">
          <mxGeometry x="510" y="570" width="40" height="40" as="geometry" />
        </mxCell>
        <mxCell id="nXGSX_u4DIBoH6PeZEtl-90" value="" style="endArrow=classic;html=1;rounded=0;" edge="1" parent="1">
          <mxGeometry width="50" height="50" relative="1" as="geometry">
            <mxPoint x="570" y="469.5" as="sourcePoint" />
            <mxPoint x="650" y="470" as="targetPoint" />
          </mxGeometry>
        </mxCell>
        <mxCell id="nXGSX_u4DIBoH6PeZEtl-91" value="insert(12)" style="edgeLabel;html=1;align=center;verticalAlign=middle;resizable=0;points=[];" vertex="1" connectable="0" parent="nXGSX_u4DIBoH6PeZEtl-90">
          <mxGeometry x="-0.32" relative="1" as="geometry">
            <mxPoint x="10" as="offset" />
          </mxGeometry>
        </mxCell>
        <mxCell id="nXGSX_u4DIBoH6PeZEtl-92" value="5" style="ellipse;whiteSpace=wrap;html=1;aspect=fixed;fillColor=#f8cecc;strokeColor=#b85450;gradientColor=#ea6b66;" vertex="1" parent="1">
          <mxGeometry x="740" y="450" width="40" height="40" as="geometry" />
        </mxCell>
        <mxCell id="nXGSX_u4DIBoH6PeZEtl-93" value="" style="endArrow=classic;html=1;rounded=0;" edge="1" parent="1">
          <mxGeometry width="50" height="50" relative="1" as="geometry">
            <mxPoint x="780" y="480" as="sourcePoint" />
            <mxPoint x="800" y="515" as="targetPoint" />
          </mxGeometry>
        </mxCell>
        <mxCell id="nXGSX_u4DIBoH6PeZEtl-94" value="7" style="ellipse;whiteSpace=wrap;html=1;aspect=fixed;fillColor=#f5f5f5;strokeColor=#666666;gradientColor=#b3b3b3;" vertex="1" parent="1">
          <mxGeometry x="820" y="390" width="40" height="40" as="geometry" />
        </mxCell>
        <mxCell id="nXGSX_u4DIBoH6PeZEtl-95" value="" style="endArrow=classic;html=1;rounded=0;" edge="1" parent="1">
          <mxGeometry width="50" height="50" relative="1" as="geometry">
            <mxPoint x="740" y="480" as="sourcePoint" />
            <mxPoint x="700" y="515" as="targetPoint" />
          </mxGeometry>
        </mxCell>
        <mxCell id="nXGSX_u4DIBoH6PeZEtl-96" value="1" style="ellipse;whiteSpace=wrap;html=1;aspect=fixed;fillColor=#f5f5f5;strokeColor=#666666;gradientColor=#b3b3b3;" vertex="1" parent="1">
          <mxGeometry x="670" y="510" width="40" height="40" as="geometry" />
        </mxCell>
        <mxCell id="nXGSX_u4DIBoH6PeZEtl-97" value="" style="endArrow=classic;html=1;rounded=0;" edge="1" parent="1">
          <mxGeometry width="50" height="50" relative="1" as="geometry">
            <mxPoint x="860" y="420" as="sourcePoint" />
            <mxPoint x="900" y="455" as="targetPoint" />
          </mxGeometry>
        </mxCell>
        <mxCell id="nXGSX_u4DIBoH6PeZEtl-98" value="9" style="ellipse;whiteSpace=wrap;html=1;aspect=fixed;fillColor=#f8cecc;strokeColor=#b85450;gradientColor=#ea6b66;" vertex="1" parent="1">
          <mxGeometry x="900" y="450" width="40" height="40" as="geometry" />
        </mxCell>
        <mxCell id="nXGSX_u4DIBoH6PeZEtl-99" value="" style="endArrow=classic;html=1;rounded=0;" edge="1" parent="1">
          <mxGeometry width="50" height="50" relative="1" as="geometry">
            <mxPoint x="820" y="420" as="sourcePoint" />
            <mxPoint x="780" y="455" as="targetPoint" />
          </mxGeometry>
        </mxCell>
        <mxCell id="nXGSX_u4DIBoH6PeZEtl-100" value="6" style="ellipse;whiteSpace=wrap;html=1;aspect=fixed;fillColor=#f5f5f5;strokeColor=#666666;gradientColor=#b3b3b3;" vertex="1" parent="1">
          <mxGeometry x="790" y="510" width="40" height="40" as="geometry" />
        </mxCell>
        <mxCell id="nXGSX_u4DIBoH6PeZEtl-101" value="" style="endArrow=classic;html=1;rounded=0;" edge="1" parent="1">
          <mxGeometry width="50" height="50" relative="1" as="geometry">
            <mxPoint x="940" y="480" as="sourcePoint" />
            <mxPoint x="980" y="515" as="targetPoint" />
          </mxGeometry>
        </mxCell>
        <mxCell id="nXGSX_u4DIBoH6PeZEtl-102" value="11" style="ellipse;whiteSpace=wrap;html=1;aspect=fixed;fillColor=#f5f5f5;strokeColor=#666666;gradientColor=#b3b3b3;" vertex="1" parent="1">
          <mxGeometry x="970" y="510" width="40" height="40" as="geometry" />
        </mxCell>
        <mxCell id="nXGSX_u4DIBoH6PeZEtl-103" value="" style="endArrow=classic;html=1;rounded=0;" edge="1" parent="1">
          <mxGeometry width="50" height="50" relative="1" as="geometry">
            <mxPoint x="900" y="480" as="sourcePoint" />
            <mxPoint x="880" y="515" as="targetPoint" />
          </mxGeometry>
        </mxCell>
        <mxCell id="nXGSX_u4DIBoH6PeZEtl-104" value="8" style="ellipse;whiteSpace=wrap;html=1;aspect=fixed;fillColor=#f5f5f5;strokeColor=#666666;gradientColor=#b3b3b3;" vertex="1" parent="1">
          <mxGeometry x="850" y="510" width="40" height="40" as="geometry" />
        </mxCell>
        <mxCell id="nXGSX_u4DIBoH6PeZEtl-105" value="" style="endArrow=classic;html=1;rounded=0;" edge="1" parent="1">
          <mxGeometry width="50" height="50" relative="1" as="geometry">
            <mxPoint x="1010" y="540" as="sourcePoint" />
            <mxPoint x="1050" y="575" as="targetPoint" />
          </mxGeometry>
        </mxCell>
        <mxCell id="nXGSX_u4DIBoH6PeZEtl-106" value="12" style="ellipse;whiteSpace=wrap;html=1;aspect=fixed;fillColor=#f8cecc;strokeColor=#b85450;gradientColor=#ea6b66;" vertex="1" parent="1">
          <mxGeometry x="1040" y="570" width="40" height="40" as="geometry" />
        </mxCell>
        <mxCell id="nXGSX_u4DIBoH6PeZEtl-109" value="" style="endArrow=classic;html=1;rounded=0;" edge="1" parent="1">
          <mxGeometry width="50" height="50" relative="1" as="geometry">
            <mxPoint x="970" y="540" as="sourcePoint" />
            <mxPoint x="930" y="575" as="targetPoint" />
          </mxGeometry>
        </mxCell>
        <mxCell id="nXGSX_u4DIBoH6PeZEtl-110" value="10" style="ellipse;whiteSpace=wrap;html=1;aspect=fixed;fillColor=#f8cecc;strokeColor=#b85450;gradientColor=#ea6b66;" vertex="1" parent="1">
          <mxGeometry x="900" y="570" width="40" height="40" as="geometry" />
        </mxCell>
        <mxCell id="nXGSX_u4DIBoH6PeZEtl-112" value="" style="endArrow=classic;html=1;rounded=0;" edge="1" parent="1">
          <mxGeometry width="50" height="50" relative="1" as="geometry">
            <mxPoint x="1090" y="469.5" as="sourcePoint" />
            <mxPoint x="1170" y="470" as="targetPoint" />
          </mxGeometry>
        </mxCell>
        <mxCell id="nXGSX_u4DIBoH6PeZEtl-113" value="insert(13)" style="edgeLabel;html=1;align=center;verticalAlign=middle;resizable=0;points=[];" vertex="1" connectable="0" parent="nXGSX_u4DIBoH6PeZEtl-112">
          <mxGeometry x="-0.32" relative="1" as="geometry">
            <mxPoint x="10" as="offset" />
          </mxGeometry>
        </mxCell>
        <mxCell id="nXGSX_u4DIBoH6PeZEtl-114" value="5" style="ellipse;whiteSpace=wrap;html=1;aspect=fixed;fillColor=#f5f5f5;strokeColor=#666666;gradientColor=#b3b3b3;" vertex="1" parent="1">
          <mxGeometry x="1260" y="450" width="40" height="40" as="geometry" />
        </mxCell>
        <mxCell id="nXGSX_u4DIBoH6PeZEtl-115" value="" style="endArrow=classic;html=1;rounded=0;" edge="1" parent="1">
          <mxGeometry width="50" height="50" relative="1" as="geometry">
            <mxPoint x="1300" y="480" as="sourcePoint" />
            <mxPoint x="1320" y="515" as="targetPoint" />
          </mxGeometry>
        </mxCell>
        <mxCell id="nXGSX_u4DIBoH6PeZEtl-116" value="7" style="ellipse;whiteSpace=wrap;html=1;aspect=fixed;fillColor=#f5f5f5;strokeColor=#666666;gradientColor=#b3b3b3;" vertex="1" parent="1">
          <mxGeometry x="1340" y="390" width="40" height="40" as="geometry" />
        </mxCell>
        <mxCell id="nXGSX_u4DIBoH6PeZEtl-117" value="" style="endArrow=classic;html=1;rounded=0;" edge="1" parent="1">
          <mxGeometry width="50" height="50" relative="1" as="geometry">
            <mxPoint x="1260" y="480" as="sourcePoint" />
            <mxPoint x="1220" y="515" as="targetPoint" />
          </mxGeometry>
        </mxCell>
        <mxCell id="nXGSX_u4DIBoH6PeZEtl-118" value="1" style="ellipse;whiteSpace=wrap;html=1;aspect=fixed;fillColor=#f5f5f5;strokeColor=#666666;gradientColor=#b3b3b3;" vertex="1" parent="1">
          <mxGeometry x="1190" y="510" width="40" height="40" as="geometry" />
        </mxCell>
        <mxCell id="nXGSX_u4DIBoH6PeZEtl-119" value="" style="endArrow=classic;html=1;rounded=0;" edge="1" parent="1">
          <mxGeometry width="50" height="50" relative="1" as="geometry">
            <mxPoint x="1380" y="420" as="sourcePoint" />
            <mxPoint x="1420" y="455" as="targetPoint" />
          </mxGeometry>
        </mxCell>
        <mxCell id="nXGSX_u4DIBoH6PeZEtl-120" value="9" style="ellipse;whiteSpace=wrap;html=1;aspect=fixed;fillColor=#f5f5f5;strokeColor=#666666;gradientColor=#b3b3b3;" vertex="1" parent="1">
          <mxGeometry x="1420" y="450" width="40" height="40" as="geometry" />
        </mxCell>
        <mxCell id="nXGSX_u4DIBoH6PeZEtl-121" value="" style="endArrow=classic;html=1;rounded=0;" edge="1" parent="1">
          <mxGeometry width="50" height="50" relative="1" as="geometry">
            <mxPoint x="1340" y="420" as="sourcePoint" />
            <mxPoint x="1300" y="455" as="targetPoint" />
          </mxGeometry>
        </mxCell>
        <mxCell id="nXGSX_u4DIBoH6PeZEtl-122" value="6" style="ellipse;whiteSpace=wrap;html=1;aspect=fixed;fillColor=#f5f5f5;strokeColor=#666666;gradientColor=#b3b3b3;" vertex="1" parent="1">
          <mxGeometry x="1310" y="510" width="40" height="40" as="geometry" />
        </mxCell>
        <mxCell id="nXGSX_u4DIBoH6PeZEtl-123" value="" style="endArrow=classic;html=1;rounded=0;" edge="1" parent="1">
          <mxGeometry width="50" height="50" relative="1" as="geometry">
            <mxPoint x="1460" y="480" as="sourcePoint" />
            <mxPoint x="1500" y="515" as="targetPoint" />
          </mxGeometry>
        </mxCell>
        <mxCell id="nXGSX_u4DIBoH6PeZEtl-124" value="11" style="ellipse;whiteSpace=wrap;html=1;aspect=fixed;fillColor=#f8cecc;strokeColor=#b85450;gradientColor=#ea6b66;" vertex="1" parent="1">
          <mxGeometry x="1490" y="510" width="40" height="40" as="geometry" />
        </mxCell>
        <mxCell id="nXGSX_u4DIBoH6PeZEtl-125" value="" style="endArrow=classic;html=1;rounded=0;" edge="1" parent="1">
          <mxGeometry width="50" height="50" relative="1" as="geometry">
            <mxPoint x="1420" y="480" as="sourcePoint" />
            <mxPoint x="1400" y="515" as="targetPoint" />
          </mxGeometry>
        </mxCell>
        <mxCell id="nXGSX_u4DIBoH6PeZEtl-126" value="8" style="ellipse;whiteSpace=wrap;html=1;aspect=fixed;fillColor=#f5f5f5;strokeColor=#666666;gradientColor=#b3b3b3;" vertex="1" parent="1">
          <mxGeometry x="1370" y="510" width="40" height="40" as="geometry" />
        </mxCell>
        <mxCell id="nXGSX_u4DIBoH6PeZEtl-127" value="" style="endArrow=classic;html=1;rounded=0;" edge="1" parent="1">
          <mxGeometry width="50" height="50" relative="1" as="geometry">
            <mxPoint x="1530" y="540" as="sourcePoint" />
            <mxPoint x="1570" y="575" as="targetPoint" />
          </mxGeometry>
        </mxCell>
        <mxCell id="nXGSX_u4DIBoH6PeZEtl-128" value="12" style="ellipse;whiteSpace=wrap;html=1;aspect=fixed;fillColor=#f5f5f5;strokeColor=#666666;gradientColor=#b3b3b3;" vertex="1" parent="1">
          <mxGeometry x="1560" y="570" width="40" height="40" as="geometry" />
        </mxCell>
        <mxCell id="nXGSX_u4DIBoH6PeZEtl-129" value="" style="endArrow=classic;html=1;rounded=0;" edge="1" parent="1">
          <mxGeometry width="50" height="50" relative="1" as="geometry">
            <mxPoint x="1490" y="540" as="sourcePoint" />
            <mxPoint x="1450" y="575" as="targetPoint" />
          </mxGeometry>
        </mxCell>
        <mxCell id="nXGSX_u4DIBoH6PeZEtl-130" value="10" style="ellipse;whiteSpace=wrap;html=1;aspect=fixed;fillColor=#f5f5f5;strokeColor=#666666;gradientColor=#b3b3b3;" vertex="1" parent="1">
          <mxGeometry x="1420" y="570" width="40" height="40" as="geometry" />
        </mxCell>
        <mxCell id="nXGSX_u4DIBoH6PeZEtl-131" value="" style="endArrow=classic;html=1;rounded=0;" edge="1" parent="1">
          <mxGeometry width="50" height="50" relative="1" as="geometry">
            <mxPoint x="1600" y="600" as="sourcePoint" />
            <mxPoint x="1640" y="635" as="targetPoint" />
          </mxGeometry>
        </mxCell>
        <mxCell id="nXGSX_u4DIBoH6PeZEtl-132" value="13" style="ellipse;whiteSpace=wrap;html=1;aspect=fixed;fillColor=#f8cecc;strokeColor=#b85450;gradientColor=#ea6b66;" vertex="1" parent="1">
          <mxGeometry x="1630" y="630" width="40" height="40" as="geometry" />
        </mxCell>
        <mxCell id="nXGSX_u4DIBoH6PeZEtl-136" value="" style="endArrow=classic;html=1;rounded=0;" edge="1" parent="1">
          <mxGeometry width="50" height="50" relative="1" as="geometry">
            <mxPoint x="1720" y="479.5" as="sourcePoint" />
            <mxPoint x="1800" y="480" as="targetPoint" />
          </mxGeometry>
        </mxCell>
        <mxCell id="nXGSX_u4DIBoH6PeZEtl-137" value="insert(14)" style="edgeLabel;html=1;align=center;verticalAlign=middle;resizable=0;points=[];" vertex="1" connectable="0" parent="nXGSX_u4DIBoH6PeZEtl-136">
          <mxGeometry x="-0.32" relative="1" as="geometry">
            <mxPoint x="10" as="offset" />
          </mxGeometry>
        </mxCell>
        <mxCell id="nXGSX_u4DIBoH6PeZEtl-138" value="5" style="ellipse;whiteSpace=wrap;html=1;aspect=fixed;fillColor=#f5f5f5;strokeColor=#666666;gradientColor=#b3b3b3;" vertex="1" parent="1">
          <mxGeometry x="1890" y="460" width="40" height="40" as="geometry" />
        </mxCell>
        <mxCell id="nXGSX_u4DIBoH6PeZEtl-139" value="" style="endArrow=classic;html=1;rounded=0;" edge="1" parent="1">
          <mxGeometry width="50" height="50" relative="1" as="geometry">
            <mxPoint x="1930" y="490" as="sourcePoint" />
            <mxPoint x="1950" y="525" as="targetPoint" />
          </mxGeometry>
        </mxCell>
        <mxCell id="nXGSX_u4DIBoH6PeZEtl-140" value="7" style="ellipse;whiteSpace=wrap;html=1;aspect=fixed;fillColor=#f5f5f5;strokeColor=#666666;gradientColor=#b3b3b3;" vertex="1" parent="1">
          <mxGeometry x="1970" y="400" width="40" height="40" as="geometry" />
        </mxCell>
        <mxCell id="nXGSX_u4DIBoH6PeZEtl-141" value="" style="endArrow=classic;html=1;rounded=0;" edge="1" parent="1">
          <mxGeometry width="50" height="50" relative="1" as="geometry">
            <mxPoint x="1890" y="490" as="sourcePoint" />
            <mxPoint x="1850" y="525" as="targetPoint" />
          </mxGeometry>
        </mxCell>
        <mxCell id="nXGSX_u4DIBoH6PeZEtl-142" value="1" style="ellipse;whiteSpace=wrap;html=1;aspect=fixed;fillColor=#f5f5f5;strokeColor=#666666;gradientColor=#b3b3b3;" vertex="1" parent="1">
          <mxGeometry x="1820" y="520" width="40" height="40" as="geometry" />
        </mxCell>
        <mxCell id="nXGSX_u4DIBoH6PeZEtl-143" value="" style="endArrow=classic;html=1;rounded=0;" edge="1" parent="1">
          <mxGeometry width="50" height="50" relative="1" as="geometry">
            <mxPoint x="2010" y="430" as="sourcePoint" />
            <mxPoint x="2050" y="465" as="targetPoint" />
          </mxGeometry>
        </mxCell>
        <mxCell id="nXGSX_u4DIBoH6PeZEtl-144" value="9" style="ellipse;whiteSpace=wrap;html=1;aspect=fixed;fillColor=#f5f5f5;strokeColor=#666666;gradientColor=#b3b3b3;" vertex="1" parent="1">
          <mxGeometry x="2050" y="460" width="40" height="40" as="geometry" />
        </mxCell>
        <mxCell id="nXGSX_u4DIBoH6PeZEtl-145" value="" style="endArrow=classic;html=1;rounded=0;" edge="1" parent="1">
          <mxGeometry width="50" height="50" relative="1" as="geometry">
            <mxPoint x="1970" y="430" as="sourcePoint" />
            <mxPoint x="1930" y="465" as="targetPoint" />
          </mxGeometry>
        </mxCell>
        <mxCell id="nXGSX_u4DIBoH6PeZEtl-146" value="6" style="ellipse;whiteSpace=wrap;html=1;aspect=fixed;fillColor=#f5f5f5;strokeColor=#666666;gradientColor=#b3b3b3;" vertex="1" parent="1">
          <mxGeometry x="1940" y="520" width="40" height="40" as="geometry" />
        </mxCell>
        <mxCell id="nXGSX_u4DIBoH6PeZEtl-147" value="" style="endArrow=classic;html=1;rounded=0;" edge="1" parent="1">
          <mxGeometry width="50" height="50" relative="1" as="geometry">
            <mxPoint x="2090" y="490" as="sourcePoint" />
            <mxPoint x="2130" y="525" as="targetPoint" />
          </mxGeometry>
        </mxCell>
        <mxCell id="nXGSX_u4DIBoH6PeZEtl-148" value="11" style="ellipse;whiteSpace=wrap;html=1;aspect=fixed;fillColor=#f8cecc;strokeColor=#b85450;gradientColor=#ea6b66;" vertex="1" parent="1">
          <mxGeometry x="2120" y="520" width="40" height="40" as="geometry" />
        </mxCell>
        <mxCell id="nXGSX_u4DIBoH6PeZEtl-149" value="" style="endArrow=classic;html=1;rounded=0;" edge="1" parent="1">
          <mxGeometry width="50" height="50" relative="1" as="geometry">
            <mxPoint x="2050" y="490" as="sourcePoint" />
            <mxPoint x="2030" y="525" as="targetPoint" />
          </mxGeometry>
        </mxCell>
        <mxCell id="nXGSX_u4DIBoH6PeZEtl-150" value="8" style="ellipse;whiteSpace=wrap;html=1;aspect=fixed;fillColor=#f5f5f5;strokeColor=#666666;gradientColor=#b3b3b3;" vertex="1" parent="1">
          <mxGeometry x="2000" y="520" width="40" height="40" as="geometry" />
        </mxCell>
        <mxCell id="nXGSX_u4DIBoH6PeZEtl-151" value="" style="endArrow=classic;html=1;rounded=0;" edge="1" parent="1">
          <mxGeometry width="50" height="50" relative="1" as="geometry">
            <mxPoint x="2160" y="550" as="sourcePoint" />
            <mxPoint x="2200" y="585" as="targetPoint" />
          </mxGeometry>
        </mxCell>
        <mxCell id="nXGSX_u4DIBoH6PeZEtl-152" value="13" style="ellipse;whiteSpace=wrap;html=1;aspect=fixed;fillColor=#f5f5f5;strokeColor=#666666;gradientColor=#b3b3b3;" vertex="1" parent="1">
          <mxGeometry x="2190" y="580" width="40" height="40" as="geometry" />
        </mxCell>
        <mxCell id="nXGSX_u4DIBoH6PeZEtl-153" value="" style="endArrow=classic;html=1;rounded=0;" edge="1" parent="1">
          <mxGeometry width="50" height="50" relative="1" as="geometry">
            <mxPoint x="2120" y="550" as="sourcePoint" />
            <mxPoint x="2080" y="585" as="targetPoint" />
          </mxGeometry>
        </mxCell>
        <mxCell id="nXGSX_u4DIBoH6PeZEtl-154" value="10" style="ellipse;whiteSpace=wrap;html=1;aspect=fixed;fillColor=#f5f5f5;strokeColor=#666666;gradientColor=#b3b3b3;" vertex="1" parent="1">
          <mxGeometry x="2050" y="580" width="40" height="40" as="geometry" />
        </mxCell>
        <mxCell id="nXGSX_u4DIBoH6PeZEtl-155" value="" style="endArrow=classic;html=1;rounded=0;" edge="1" parent="1">
          <mxGeometry width="50" height="50" relative="1" as="geometry">
            <mxPoint x="2230" y="610" as="sourcePoint" />
            <mxPoint x="2270" y="645" as="targetPoint" />
          </mxGeometry>
        </mxCell>
        <mxCell id="nXGSX_u4DIBoH6PeZEtl-156" value="14" style="ellipse;whiteSpace=wrap;html=1;aspect=fixed;fillColor=#f8cecc;strokeColor=#b85450;gradientColor=#ea6b66;" vertex="1" parent="1">
          <mxGeometry x="2260" y="640" width="40" height="40" as="geometry" />
        </mxCell>
        <mxCell id="nXGSX_u4DIBoH6PeZEtl-159" value="" style="endArrow=classic;html=1;rounded=0;" edge="1" parent="1">
          <mxGeometry width="50" height="50" relative="1" as="geometry">
            <mxPoint x="2190" y="615" as="sourcePoint" />
            <mxPoint x="2150" y="650" as="targetPoint" />
          </mxGeometry>
        </mxCell>
        <mxCell id="nXGSX_u4DIBoH6PeZEtl-160" value="12" style="ellipse;whiteSpace=wrap;html=1;aspect=fixed;fillColor=#f8cecc;strokeColor=#b85450;gradientColor=#ea6b66;" vertex="1" parent="1">
          <mxGeometry x="2120" y="645" width="40" height="40" as="geometry" />
        </mxCell>
        <mxCell id="nXGSX_u4DIBoH6PeZEtl-161" value="" style="endArrow=classic;html=1;rounded=0;" edge="1" parent="1">
          <mxGeometry width="50" height="50" relative="1" as="geometry">
            <mxPoint x="10" y="869" as="sourcePoint" />
            <mxPoint x="90" y="869.5" as="targetPoint" />
          </mxGeometry>
        </mxCell>
        <mxCell id="nXGSX_u4DIBoH6PeZEtl-162" value="insert(15)" style="edgeLabel;html=1;align=center;verticalAlign=middle;resizable=0;points=[];" vertex="1" connectable="0" parent="nXGSX_u4DIBoH6PeZEtl-161">
          <mxGeometry x="-0.32" relative="1" as="geometry">
            <mxPoint x="10" as="offset" />
          </mxGeometry>
        </mxCell>
        <mxCell id="nXGSX_u4DIBoH6PeZEtl-163" value="5" style="ellipse;whiteSpace=wrap;html=1;aspect=fixed;fillColor=#f5f5f5;strokeColor=#666666;gradientColor=#b3b3b3;" vertex="1" parent="1">
          <mxGeometry x="210" y="810" width="40" height="40" as="geometry" />
        </mxCell>
        <mxCell id="nXGSX_u4DIBoH6PeZEtl-164" value="" style="endArrow=classic;html=1;rounded=0;" edge="1" parent="1">
          <mxGeometry width="50" height="50" relative="1" as="geometry">
            <mxPoint x="250" y="840" as="sourcePoint" />
            <mxPoint x="270" y="875" as="targetPoint" />
          </mxGeometry>
        </mxCell>
        <mxCell id="nXGSX_u4DIBoH6PeZEtl-165" value="7" style="ellipse;whiteSpace=wrap;html=1;aspect=fixed;fillColor=#f5f5f5;strokeColor=#666666;gradientColor=#b3b3b3;" vertex="1" parent="1">
          <mxGeometry x="320" y="740" width="40" height="40" as="geometry" />
        </mxCell>
        <mxCell id="nXGSX_u4DIBoH6PeZEtl-166" value="" style="endArrow=classic;html=1;rounded=0;" edge="1" parent="1">
          <mxGeometry width="50" height="50" relative="1" as="geometry">
            <mxPoint x="210" y="840" as="sourcePoint" />
            <mxPoint x="170" y="875" as="targetPoint" />
          </mxGeometry>
        </mxCell>
        <mxCell id="nXGSX_u4DIBoH6PeZEtl-167" value="1" style="ellipse;whiteSpace=wrap;html=1;aspect=fixed;fillColor=#f5f5f5;strokeColor=#666666;gradientColor=#b3b3b3;" vertex="1" parent="1">
          <mxGeometry x="140" y="870" width="40" height="40" as="geometry" />
        </mxCell>
        <mxCell id="nXGSX_u4DIBoH6PeZEtl-168" value="" style="endArrow=classic;html=1;rounded=0;entryX=0.114;entryY=0.299;entryDx=0;entryDy=0;entryPerimeter=0;exitX=1;exitY=1;exitDx=0;exitDy=0;" edge="1" parent="1" source="nXGSX_u4DIBoH6PeZEtl-165" target="nXGSX_u4DIBoH6PeZEtl-173">
          <mxGeometry width="50" height="50" relative="1" as="geometry">
            <mxPoint x="380" y="780" as="sourcePoint" />
            <mxPoint x="430" y="820" as="targetPoint" />
          </mxGeometry>
        </mxCell>
        <mxCell id="nXGSX_u4DIBoH6PeZEtl-169" value="9" style="ellipse;whiteSpace=wrap;html=1;aspect=fixed;fillColor=#f8cecc;strokeColor=#b85450;gradientColor=#ea6b66;" vertex="1" parent="1">
          <mxGeometry x="350" y="880" width="40" height="40" as="geometry" />
        </mxCell>
        <mxCell id="nXGSX_u4DIBoH6PeZEtl-170" value="" style="endArrow=classic;html=1;rounded=0;exitX=0.024;exitY=0.794;exitDx=0;exitDy=0;exitPerimeter=0;entryX=1;entryY=0;entryDx=0;entryDy=0;" edge="1" parent="1" source="nXGSX_u4DIBoH6PeZEtl-165" target="nXGSX_u4DIBoH6PeZEtl-163">
          <mxGeometry width="50" height="50" relative="1" as="geometry">
            <mxPoint x="290" y="780" as="sourcePoint" />
            <mxPoint x="250" y="815" as="targetPoint" />
          </mxGeometry>
        </mxCell>
        <mxCell id="nXGSX_u4DIBoH6PeZEtl-171" value="6" style="ellipse;whiteSpace=wrap;html=1;aspect=fixed;fillColor=#f5f5f5;strokeColor=#666666;gradientColor=#b3b3b3;" vertex="1" parent="1">
          <mxGeometry x="260" y="870" width="40" height="40" as="geometry" />
        </mxCell>
        <mxCell id="nXGSX_u4DIBoH6PeZEtl-172" value="" style="endArrow=classic;html=1;rounded=0;entryX=1;entryY=0;entryDx=0;entryDy=0;exitX=0.031;exitY=0.689;exitDx=0;exitDy=0;exitPerimeter=0;" edge="1" parent="1" source="nXGSX_u4DIBoH6PeZEtl-173" target="nXGSX_u4DIBoH6PeZEtl-169">
          <mxGeometry width="50" height="50" relative="1" as="geometry">
            <mxPoint x="410" y="780" as="sourcePoint" />
            <mxPoint x="450" y="815" as="targetPoint" />
          </mxGeometry>
        </mxCell>
        <mxCell id="nXGSX_u4DIBoH6PeZEtl-173" value="11" style="ellipse;whiteSpace=wrap;html=1;aspect=fixed;fillColor=#f5f5f5;strokeColor=#666666;gradientColor=#b3b3b3;" vertex="1" parent="1">
          <mxGeometry x="440" y="810" width="40" height="40" as="geometry" />
        </mxCell>
        <mxCell id="nXGSX_u4DIBoH6PeZEtl-174" value="" style="endArrow=classic;html=1;rounded=0;exitX=0;exitY=1;exitDx=0;exitDy=0;" edge="1" parent="1" source="nXGSX_u4DIBoH6PeZEtl-169">
          <mxGeometry width="50" height="50" relative="1" as="geometry">
            <mxPoint x="350" y="910" as="sourcePoint" />
            <mxPoint x="330" y="945" as="targetPoint" />
          </mxGeometry>
        </mxCell>
        <mxCell id="nXGSX_u4DIBoH6PeZEtl-175" value="8" style="ellipse;whiteSpace=wrap;html=1;aspect=fixed;fillColor=#f5f5f5;strokeColor=#666666;gradientColor=#b3b3b3;" vertex="1" parent="1">
          <mxGeometry x="300" y="940" width="40" height="40" as="geometry" />
        </mxCell>
        <mxCell id="nXGSX_u4DIBoH6PeZEtl-176" value="" style="endArrow=classic;html=1;rounded=0;" edge="1" parent="1">
          <mxGeometry width="50" height="50" relative="1" as="geometry">
            <mxPoint x="480" y="840" as="sourcePoint" />
            <mxPoint x="520" y="875" as="targetPoint" />
          </mxGeometry>
        </mxCell>
        <mxCell id="nXGSX_u4DIBoH6PeZEtl-177" value="13" style="ellipse;whiteSpace=wrap;html=1;aspect=fixed;fillColor=#f8cecc;strokeColor=#b85450;gradientColor=#ea6b66;" vertex="1" parent="1">
          <mxGeometry x="510" y="870" width="40" height="40" as="geometry" />
        </mxCell>
        <mxCell id="nXGSX_u4DIBoH6PeZEtl-178" value="" style="endArrow=classic;html=1;rounded=0;exitX=1;exitY=1;exitDx=0;exitDy=0;" edge="1" parent="1" source="nXGSX_u4DIBoH6PeZEtl-169">
          <mxGeometry width="50" height="50" relative="1" as="geometry">
            <mxPoint x="380" y="910" as="sourcePoint" />
            <mxPoint x="410" y="945" as="targetPoint" />
          </mxGeometry>
        </mxCell>
        <mxCell id="nXGSX_u4DIBoH6PeZEtl-179" value="10" style="ellipse;whiteSpace=wrap;html=1;aspect=fixed;fillColor=#f5f5f5;strokeColor=#666666;gradientColor=#b3b3b3;" vertex="1" parent="1">
          <mxGeometry x="400" y="940" width="40" height="40" as="geometry" />
        </mxCell>
        <mxCell id="nXGSX_u4DIBoH6PeZEtl-180" value="" style="endArrow=classic;html=1;rounded=0;entryX=0;entryY=0;entryDx=0;entryDy=0;exitX=1;exitY=1;exitDx=0;exitDy=0;" edge="1" parent="1" source="nXGSX_u4DIBoH6PeZEtl-177" target="nXGSX_u4DIBoH6PeZEtl-181">
          <mxGeometry width="50" height="50" relative="1" as="geometry">
            <mxPoint x="550" y="900" as="sourcePoint" />
            <mxPoint x="590" y="935" as="targetPoint" />
          </mxGeometry>
        </mxCell>
        <mxCell id="nXGSX_u4DIBoH6PeZEtl-181" value="14" style="ellipse;whiteSpace=wrap;html=1;aspect=fixed;fillColor=#f5f5f5;strokeColor=#666666;gradientColor=#b3b3b3;" vertex="1" parent="1">
          <mxGeometry x="590" y="940" width="40" height="40" as="geometry" />
        </mxCell>
        <mxCell id="nXGSX_u4DIBoH6PeZEtl-182" value="" style="endArrow=classic;html=1;rounded=0;exitX=0;exitY=1;exitDx=0;exitDy=0;entryX=0.702;entryY=0.144;entryDx=0;entryDy=0;entryPerimeter=0;" edge="1" parent="1" source="nXGSX_u4DIBoH6PeZEtl-177" target="nXGSX_u4DIBoH6PeZEtl-183">
          <mxGeometry width="50" height="50" relative="1" as="geometry">
            <mxPoint x="510" y="905" as="sourcePoint" />
            <mxPoint x="500" y="930" as="targetPoint" />
          </mxGeometry>
        </mxCell>
        <mxCell id="nXGSX_u4DIBoH6PeZEtl-183" value="12" style="ellipse;whiteSpace=wrap;html=1;aspect=fixed;fillColor=#f5f5f5;strokeColor=#666666;gradientColor=#b3b3b3;" vertex="1" parent="1">
          <mxGeometry x="470" y="940" width="40" height="40" as="geometry" />
        </mxCell>
        <mxCell id="nXGSX_u4DIBoH6PeZEtl-184" value="" style="endArrow=classic;html=1;rounded=0;entryX=0.35;entryY=0.13;entryDx=0;entryDy=0;entryPerimeter=0;exitX=1;exitY=1;exitDx=0;exitDy=0;" edge="1" parent="1" source="nXGSX_u4DIBoH6PeZEtl-181" target="nXGSX_u4DIBoH6PeZEtl-185">
          <mxGeometry width="50" height="50" relative="1" as="geometry">
            <mxPoint x="700" y="950" as="sourcePoint" />
            <mxPoint x="670" y="1005" as="targetPoint" />
          </mxGeometry>
        </mxCell>
        <mxCell id="nXGSX_u4DIBoH6PeZEtl-185" value="15" style="ellipse;whiteSpace=wrap;html=1;aspect=fixed;fillColor=#f8cecc;strokeColor=#b85450;gradientColor=#ea6b66;" vertex="1" parent="1">
          <mxGeometry x="630" y="1000" width="40" height="40" as="geometry" />
        </mxCell>
        <mxCell id="nXGSX_u4DIBoH6PeZEtl-186" value="delete {14，9，5}" style="rounded=0;whiteSpace=wrap;html=1;" vertex="1" parent="1">
          <mxGeometry x="1300" y="30" width="130" height="40" as="geometry" />
        </mxCell>
        <mxCell id="nXGSX_u4DIBoH6PeZEtl-187" value="" style="endArrow=classic;html=1;rounded=0;" edge="1" parent="1">
          <mxGeometry width="50" height="50" relative="1" as="geometry">
            <mxPoint x="700" y="849" as="sourcePoint" />
            <mxPoint x="780" y="849.5" as="targetPoint" />
          </mxGeometry>
        </mxCell>
        <mxCell id="nXGSX_u4DIBoH6PeZEtl-188" value="delete(14)" style="edgeLabel;html=1;align=center;verticalAlign=middle;resizable=0;points=[];" vertex="1" connectable="0" parent="nXGSX_u4DIBoH6PeZEtl-187">
          <mxGeometry x="-0.32" relative="1" as="geometry">
            <mxPoint x="10" as="offset" />
          </mxGeometry>
        </mxCell>
        <mxCell id="nXGSX_u4DIBoH6PeZEtl-189" value="5" style="ellipse;whiteSpace=wrap;html=1;aspect=fixed;fillColor=#f5f5f5;strokeColor=#666666;gradientColor=#b3b3b3;" vertex="1" parent="1">
          <mxGeometry x="900" y="790" width="40" height="40" as="geometry" />
        </mxCell>
        <mxCell id="nXGSX_u4DIBoH6PeZEtl-190" value="" style="endArrow=classic;html=1;rounded=0;" edge="1" parent="1">
          <mxGeometry width="50" height="50" relative="1" as="geometry">
            <mxPoint x="940" y="820" as="sourcePoint" />
            <mxPoint x="960" y="855" as="targetPoint" />
          </mxGeometry>
        </mxCell>
        <mxCell id="nXGSX_u4DIBoH6PeZEtl-191" value="7" style="ellipse;whiteSpace=wrap;html=1;aspect=fixed;fillColor=#f5f5f5;strokeColor=#666666;gradientColor=#b3b3b3;" vertex="1" parent="1">
          <mxGeometry x="1010" y="720" width="40" height="40" as="geometry" />
        </mxCell>
        <mxCell id="nXGSX_u4DIBoH6PeZEtl-192" value="" style="endArrow=classic;html=1;rounded=0;" edge="1" parent="1">
          <mxGeometry width="50" height="50" relative="1" as="geometry">
            <mxPoint x="900" y="820" as="sourcePoint" />
            <mxPoint x="860" y="855" as="targetPoint" />
          </mxGeometry>
        </mxCell>
        <mxCell id="nXGSX_u4DIBoH6PeZEtl-193" value="1" style="ellipse;whiteSpace=wrap;html=1;aspect=fixed;fillColor=#f5f5f5;strokeColor=#666666;gradientColor=#b3b3b3;" vertex="1" parent="1">
          <mxGeometry x="830" y="850" width="40" height="40" as="geometry" />
        </mxCell>
        <mxCell id="nXGSX_u4DIBoH6PeZEtl-194" value="" style="endArrow=classic;html=1;rounded=0;entryX=0.114;entryY=0.299;entryDx=0;entryDy=0;entryPerimeter=0;exitX=1;exitY=1;exitDx=0;exitDy=0;" edge="1" parent="1" source="nXGSX_u4DIBoH6PeZEtl-191" target="nXGSX_u4DIBoH6PeZEtl-199">
          <mxGeometry width="50" height="50" relative="1" as="geometry">
            <mxPoint x="1070" y="760" as="sourcePoint" />
            <mxPoint x="1120" y="800" as="targetPoint" />
          </mxGeometry>
        </mxCell>
        <mxCell id="nXGSX_u4DIBoH6PeZEtl-195" value="9" style="ellipse;whiteSpace=wrap;html=1;aspect=fixed;fillColor=#f8cecc;strokeColor=#b85450;gradientColor=#ea6b66;" vertex="1" parent="1">
          <mxGeometry x="1040" y="860" width="40" height="40" as="geometry" />
        </mxCell>
        <mxCell id="nXGSX_u4DIBoH6PeZEtl-196" value="" style="endArrow=classic;html=1;rounded=0;exitX=0.024;exitY=0.794;exitDx=0;exitDy=0;exitPerimeter=0;entryX=1;entryY=0;entryDx=0;entryDy=0;" edge="1" parent="1" source="nXGSX_u4DIBoH6PeZEtl-191" target="nXGSX_u4DIBoH6PeZEtl-189">
          <mxGeometry width="50" height="50" relative="1" as="geometry">
            <mxPoint x="980" y="760" as="sourcePoint" />
            <mxPoint x="940" y="795" as="targetPoint" />
          </mxGeometry>
        </mxCell>
        <mxCell id="nXGSX_u4DIBoH6PeZEtl-197" value="6" style="ellipse;whiteSpace=wrap;html=1;aspect=fixed;fillColor=#f5f5f5;strokeColor=#666666;gradientColor=#b3b3b3;" vertex="1" parent="1">
          <mxGeometry x="950" y="850" width="40" height="40" as="geometry" />
        </mxCell>
        <mxCell id="nXGSX_u4DIBoH6PeZEtl-198" value="" style="endArrow=classic;html=1;rounded=0;entryX=1;entryY=0;entryDx=0;entryDy=0;exitX=0.031;exitY=0.689;exitDx=0;exitDy=0;exitPerimeter=0;" edge="1" parent="1" source="nXGSX_u4DIBoH6PeZEtl-199" target="nXGSX_u4DIBoH6PeZEtl-195">
          <mxGeometry width="50" height="50" relative="1" as="geometry">
            <mxPoint x="1100" y="760" as="sourcePoint" />
            <mxPoint x="1140" y="795" as="targetPoint" />
          </mxGeometry>
        </mxCell>
        <mxCell id="nXGSX_u4DIBoH6PeZEtl-199" value="11" style="ellipse;whiteSpace=wrap;html=1;aspect=fixed;fillColor=#f5f5f5;strokeColor=#666666;gradientColor=#b3b3b3;" vertex="1" parent="1">
          <mxGeometry x="1130" y="790" width="40" height="40" as="geometry" />
        </mxCell>
        <mxCell id="nXGSX_u4DIBoH6PeZEtl-200" value="" style="endArrow=classic;html=1;rounded=0;exitX=0;exitY=1;exitDx=0;exitDy=0;" edge="1" parent="1" source="nXGSX_u4DIBoH6PeZEtl-195">
          <mxGeometry width="50" height="50" relative="1" as="geometry">
            <mxPoint x="1040" y="890" as="sourcePoint" />
            <mxPoint x="1020" y="925" as="targetPoint" />
          </mxGeometry>
        </mxCell>
        <mxCell id="nXGSX_u4DIBoH6PeZEtl-201" value="8" style="ellipse;whiteSpace=wrap;html=1;aspect=fixed;fillColor=#f5f5f5;strokeColor=#666666;gradientColor=#b3b3b3;" vertex="1" parent="1">
          <mxGeometry x="990" y="920" width="40" height="40" as="geometry" />
        </mxCell>
        <mxCell id="nXGSX_u4DIBoH6PeZEtl-202" value="" style="endArrow=classic;html=1;rounded=0;" edge="1" parent="1">
          <mxGeometry width="50" height="50" relative="1" as="geometry">
            <mxPoint x="1170" y="820" as="sourcePoint" />
            <mxPoint x="1210" y="855" as="targetPoint" />
          </mxGeometry>
        </mxCell>
        <mxCell id="nXGSX_u4DIBoH6PeZEtl-203" value="13" style="ellipse;whiteSpace=wrap;html=1;aspect=fixed;fillColor=#f8cecc;strokeColor=#b85450;gradientColor=#ea6b66;" vertex="1" parent="1">
          <mxGeometry x="1200" y="850" width="40" height="40" as="geometry" />
        </mxCell>
        <mxCell id="nXGSX_u4DIBoH6PeZEtl-204" value="" style="endArrow=classic;html=1;rounded=0;exitX=1;exitY=1;exitDx=0;exitDy=0;" edge="1" parent="1" source="nXGSX_u4DIBoH6PeZEtl-195">
          <mxGeometry width="50" height="50" relative="1" as="geometry">
            <mxPoint x="1070" y="890" as="sourcePoint" />
            <mxPoint x="1100" y="925" as="targetPoint" />
          </mxGeometry>
        </mxCell>
        <mxCell id="nXGSX_u4DIBoH6PeZEtl-205" value="10" style="ellipse;whiteSpace=wrap;html=1;aspect=fixed;fillColor=#f5f5f5;strokeColor=#666666;gradientColor=#b3b3b3;" vertex="1" parent="1">
          <mxGeometry x="1090" y="920" width="40" height="40" as="geometry" />
        </mxCell>
        <mxCell id="nXGSX_u4DIBoH6PeZEtl-206" value="" style="endArrow=classic;html=1;rounded=0;entryX=0;entryY=0;entryDx=0;entryDy=0;exitX=1;exitY=1;exitDx=0;exitDy=0;" edge="1" parent="1" source="nXGSX_u4DIBoH6PeZEtl-203" target="nXGSX_u4DIBoH6PeZEtl-207">
          <mxGeometry width="50" height="50" relative="1" as="geometry">
            <mxPoint x="1240" y="880" as="sourcePoint" />
            <mxPoint x="1280" y="915" as="targetPoint" />
          </mxGeometry>
        </mxCell>
        <mxCell id="nXGSX_u4DIBoH6PeZEtl-207" value="15" style="ellipse;whiteSpace=wrap;html=1;aspect=fixed;fillColor=#f5f5f5;strokeColor=#666666;gradientColor=#b3b3b3;" vertex="1" parent="1">
          <mxGeometry x="1280" y="920" width="40" height="40" as="geometry" />
        </mxCell>
        <mxCell id="nXGSX_u4DIBoH6PeZEtl-208" value="" style="endArrow=classic;html=1;rounded=0;exitX=0;exitY=1;exitDx=0;exitDy=0;entryX=0.702;entryY=0.144;entryDx=0;entryDy=0;entryPerimeter=0;" edge="1" parent="1" source="nXGSX_u4DIBoH6PeZEtl-203" target="nXGSX_u4DIBoH6PeZEtl-209">
          <mxGeometry width="50" height="50" relative="1" as="geometry">
            <mxPoint x="1200" y="885" as="sourcePoint" />
            <mxPoint x="1190" y="910" as="targetPoint" />
          </mxGeometry>
        </mxCell>
        <mxCell id="nXGSX_u4DIBoH6PeZEtl-209" value="12" style="ellipse;whiteSpace=wrap;html=1;aspect=fixed;fillColor=#f5f5f5;strokeColor=#666666;gradientColor=#b3b3b3;" vertex="1" parent="1">
          <mxGeometry x="1160" y="920" width="40" height="40" as="geometry" />
        </mxCell>
        <mxCell id="nXGSX_u4DIBoH6PeZEtl-212" value="" style="endArrow=classic;html=1;rounded=0;" edge="1" parent="1">
          <mxGeometry width="50" height="50" relative="1" as="geometry">
            <mxPoint x="1358" y="849" as="sourcePoint" />
            <mxPoint x="1438" y="849.5" as="targetPoint" />
          </mxGeometry>
        </mxCell>
        <mxCell id="nXGSX_u4DIBoH6PeZEtl-213" value="delete(9)" style="edgeLabel;html=1;align=center;verticalAlign=middle;resizable=0;points=[];" vertex="1" connectable="0" parent="nXGSX_u4DIBoH6PeZEtl-212">
          <mxGeometry x="-0.32" relative="1" as="geometry">
            <mxPoint x="10" as="offset" />
          </mxGeometry>
        </mxCell>
        <mxCell id="nXGSX_u4DIBoH6PeZEtl-214" value="5" style="ellipse;whiteSpace=wrap;html=1;aspect=fixed;fillColor=#f5f5f5;strokeColor=#666666;gradientColor=#b3b3b3;" vertex="1" parent="1">
          <mxGeometry x="1558" y="790" width="40" height="40" as="geometry" />
        </mxCell>
        <mxCell id="nXGSX_u4DIBoH6PeZEtl-215" value="" style="endArrow=classic;html=1;rounded=0;" edge="1" parent="1">
          <mxGeometry width="50" height="50" relative="1" as="geometry">
            <mxPoint x="1598" y="820" as="sourcePoint" />
            <mxPoint x="1618" y="855" as="targetPoint" />
          </mxGeometry>
        </mxCell>
        <mxCell id="nXGSX_u4DIBoH6PeZEtl-216" value="7" style="ellipse;whiteSpace=wrap;html=1;aspect=fixed;fillColor=#f5f5f5;strokeColor=#666666;gradientColor=#b3b3b3;" vertex="1" parent="1">
          <mxGeometry x="1668" y="720" width="40" height="40" as="geometry" />
        </mxCell>
        <mxCell id="nXGSX_u4DIBoH6PeZEtl-217" value="" style="endArrow=classic;html=1;rounded=0;" edge="1" parent="1">
          <mxGeometry width="50" height="50" relative="1" as="geometry">
            <mxPoint x="1558" y="820" as="sourcePoint" />
            <mxPoint x="1518" y="855" as="targetPoint" />
          </mxGeometry>
        </mxCell>
        <mxCell id="nXGSX_u4DIBoH6PeZEtl-218" value="1" style="ellipse;whiteSpace=wrap;html=1;aspect=fixed;fillColor=#f5f5f5;strokeColor=#666666;gradientColor=#b3b3b3;" vertex="1" parent="1">
          <mxGeometry x="1488" y="850" width="40" height="40" as="geometry" />
        </mxCell>
        <mxCell id="nXGSX_u4DIBoH6PeZEtl-219" value="" style="endArrow=classic;html=1;rounded=0;entryX=0.114;entryY=0.299;entryDx=0;entryDy=0;entryPerimeter=0;exitX=1;exitY=1;exitDx=0;exitDy=0;" edge="1" parent="1" source="nXGSX_u4DIBoH6PeZEtl-216" target="nXGSX_u4DIBoH6PeZEtl-224">
          <mxGeometry width="50" height="50" relative="1" as="geometry">
            <mxPoint x="1728" y="760" as="sourcePoint" />
            <mxPoint x="1778" y="800" as="targetPoint" />
          </mxGeometry>
        </mxCell>
        <mxCell id="nXGSX_u4DIBoH6PeZEtl-220" value="10" style="ellipse;whiteSpace=wrap;html=1;aspect=fixed;fillColor=#f8cecc;strokeColor=#b85450;gradientColor=#ea6b66;" vertex="1" parent="1">
          <mxGeometry x="1698" y="860" width="40" height="40" as="geometry" />
        </mxCell>
        <mxCell id="nXGSX_u4DIBoH6PeZEtl-221" value="" style="endArrow=classic;html=1;rounded=0;exitX=0.024;exitY=0.794;exitDx=0;exitDy=0;exitPerimeter=0;entryX=1;entryY=0;entryDx=0;entryDy=0;" edge="1" parent="1" source="nXGSX_u4DIBoH6PeZEtl-216" target="nXGSX_u4DIBoH6PeZEtl-214">
          <mxGeometry width="50" height="50" relative="1" as="geometry">
            <mxPoint x="1638" y="760" as="sourcePoint" />
            <mxPoint x="1598" y="795" as="targetPoint" />
          </mxGeometry>
        </mxCell>
        <mxCell id="nXGSX_u4DIBoH6PeZEtl-222" value="6" style="ellipse;whiteSpace=wrap;html=1;aspect=fixed;fillColor=#f5f5f5;strokeColor=#666666;gradientColor=#b3b3b3;" vertex="1" parent="1">
          <mxGeometry x="1608" y="850" width="40" height="40" as="geometry" />
        </mxCell>
        <mxCell id="nXGSX_u4DIBoH6PeZEtl-223" value="" style="endArrow=classic;html=1;rounded=0;entryX=1;entryY=0;entryDx=0;entryDy=0;exitX=0.031;exitY=0.689;exitDx=0;exitDy=0;exitPerimeter=0;" edge="1" parent="1" source="nXGSX_u4DIBoH6PeZEtl-224" target="nXGSX_u4DIBoH6PeZEtl-220">
          <mxGeometry width="50" height="50" relative="1" as="geometry">
            <mxPoint x="1758" y="760" as="sourcePoint" />
            <mxPoint x="1798" y="795" as="targetPoint" />
          </mxGeometry>
        </mxCell>
        <mxCell id="nXGSX_u4DIBoH6PeZEtl-224" value="11" style="ellipse;whiteSpace=wrap;html=1;aspect=fixed;fillColor=#f5f5f5;strokeColor=#666666;gradientColor=#b3b3b3;" vertex="1" parent="1">
          <mxGeometry x="1788" y="790" width="40" height="40" as="geometry" />
        </mxCell>
        <mxCell id="nXGSX_u4DIBoH6PeZEtl-225" value="" style="endArrow=classic;html=1;rounded=0;exitX=0;exitY=1;exitDx=0;exitDy=0;" edge="1" parent="1" source="nXGSX_u4DIBoH6PeZEtl-220">
          <mxGeometry width="50" height="50" relative="1" as="geometry">
            <mxPoint x="1698" y="890" as="sourcePoint" />
            <mxPoint x="1678" y="925" as="targetPoint" />
          </mxGeometry>
        </mxCell>
        <mxCell id="nXGSX_u4DIBoH6PeZEtl-226" value="8" style="ellipse;whiteSpace=wrap;html=1;aspect=fixed;fillColor=#f5f5f5;strokeColor=#666666;gradientColor=#b3b3b3;" vertex="1" parent="1">
          <mxGeometry x="1648" y="920" width="40" height="40" as="geometry" />
        </mxCell>
        <mxCell id="nXGSX_u4DIBoH6PeZEtl-227" value="" style="endArrow=classic;html=1;rounded=0;" edge="1" parent="1">
          <mxGeometry width="50" height="50" relative="1" as="geometry">
            <mxPoint x="1828" y="820" as="sourcePoint" />
            <mxPoint x="1868" y="855" as="targetPoint" />
          </mxGeometry>
        </mxCell>
        <mxCell id="nXGSX_u4DIBoH6PeZEtl-228" value="13" style="ellipse;whiteSpace=wrap;html=1;aspect=fixed;fillColor=#f8cecc;strokeColor=#b85450;gradientColor=#ea6b66;" vertex="1" parent="1">
          <mxGeometry x="1858" y="850" width="40" height="40" as="geometry" />
        </mxCell>
        <mxCell id="nXGSX_u4DIBoH6PeZEtl-231" value="" style="endArrow=classic;html=1;rounded=0;entryX=0;entryY=0;entryDx=0;entryDy=0;exitX=1;exitY=1;exitDx=0;exitDy=0;" edge="1" parent="1" source="nXGSX_u4DIBoH6PeZEtl-228" target="nXGSX_u4DIBoH6PeZEtl-232">
          <mxGeometry width="50" height="50" relative="1" as="geometry">
            <mxPoint x="1898" y="880" as="sourcePoint" />
            <mxPoint x="1938" y="915" as="targetPoint" />
          </mxGeometry>
        </mxCell>
        <mxCell id="nXGSX_u4DIBoH6PeZEtl-232" value="15" style="ellipse;whiteSpace=wrap;html=1;aspect=fixed;fillColor=#f5f5f5;strokeColor=#666666;gradientColor=#b3b3b3;" vertex="1" parent="1">
          <mxGeometry x="1938" y="920" width="40" height="40" as="geometry" />
        </mxCell>
        <mxCell id="nXGSX_u4DIBoH6PeZEtl-233" value="" style="endArrow=classic;html=1;rounded=0;exitX=0;exitY=1;exitDx=0;exitDy=0;entryX=0.702;entryY=0.144;entryDx=0;entryDy=0;entryPerimeter=0;" edge="1" parent="1" source="nXGSX_u4DIBoH6PeZEtl-228" target="nXGSX_u4DIBoH6PeZEtl-234">
          <mxGeometry width="50" height="50" relative="1" as="geometry">
            <mxPoint x="1858" y="885" as="sourcePoint" />
            <mxPoint x="1848" y="910" as="targetPoint" />
          </mxGeometry>
        </mxCell>
        <mxCell id="nXGSX_u4DIBoH6PeZEtl-234" value="12" style="ellipse;whiteSpace=wrap;html=1;aspect=fixed;fillColor=#f5f5f5;strokeColor=#666666;gradientColor=#b3b3b3;" vertex="1" parent="1">
          <mxGeometry x="1818" y="920" width="40" height="40" as="geometry" />
        </mxCell>
        <mxCell id="nXGSX_u4DIBoH6PeZEtl-235" value="" style="endArrow=classic;html=1;rounded=0;" edge="1" parent="1">
          <mxGeometry width="50" height="50" relative="1" as="geometry">
            <mxPoint x="2010" y="849" as="sourcePoint" />
            <mxPoint x="2090" y="849.5" as="targetPoint" />
          </mxGeometry>
        </mxCell>
        <mxCell id="nXGSX_u4DIBoH6PeZEtl-236" value="delete(5)" style="edgeLabel;html=1;align=center;verticalAlign=middle;resizable=0;points=[];" vertex="1" connectable="0" parent="nXGSX_u4DIBoH6PeZEtl-235">
          <mxGeometry x="-0.32" relative="1" as="geometry">
            <mxPoint x="10" as="offset" />
          </mxGeometry>
        </mxCell>
        <mxCell id="nXGSX_u4DIBoH6PeZEtl-237" value="6" style="ellipse;whiteSpace=wrap;html=1;aspect=fixed;fillColor=#f5f5f5;strokeColor=#666666;gradientColor=#b3b3b3;" vertex="1" parent="1">
          <mxGeometry x="2210" y="790" width="40" height="40" as="geometry" />
        </mxCell>
        <mxCell id="nXGSX_u4DIBoH6PeZEtl-239" value="7" style="ellipse;whiteSpace=wrap;html=1;aspect=fixed;fillColor=#f5f5f5;strokeColor=#666666;gradientColor=#b3b3b3;" vertex="1" parent="1">
          <mxGeometry x="2320" y="720" width="40" height="40" as="geometry" />
        </mxCell>
        <mxCell id="nXGSX_u4DIBoH6PeZEtl-240" value="" style="endArrow=classic;html=1;rounded=0;" edge="1" parent="1">
          <mxGeometry width="50" height="50" relative="1" as="geometry">
            <mxPoint x="2210" y="820" as="sourcePoint" />
            <mxPoint x="2170" y="855" as="targetPoint" />
          </mxGeometry>
        </mxCell>
        <mxCell id="nXGSX_u4DIBoH6PeZEtl-241" value="1" style="ellipse;whiteSpace=wrap;html=1;aspect=fixed;fillColor=#f5f5f5;strokeColor=#666666;gradientColor=#b3b3b3;" vertex="1" parent="1">
          <mxGeometry x="2140" y="850" width="40" height="40" as="geometry" />
        </mxCell>
        <mxCell id="nXGSX_u4DIBoH6PeZEtl-242" value="" style="endArrow=classic;html=1;rounded=0;entryX=0.114;entryY=0.299;entryDx=0;entryDy=0;entryPerimeter=0;exitX=1;exitY=1;exitDx=0;exitDy=0;" edge="1" parent="1" source="nXGSX_u4DIBoH6PeZEtl-239" target="nXGSX_u4DIBoH6PeZEtl-247">
          <mxGeometry width="50" height="50" relative="1" as="geometry">
            <mxPoint x="2380" y="760" as="sourcePoint" />
            <mxPoint x="2430" y="800" as="targetPoint" />
          </mxGeometry>
        </mxCell>
        <mxCell id="nXGSX_u4DIBoH6PeZEtl-243" value="10" style="ellipse;whiteSpace=wrap;html=1;aspect=fixed;fillColor=#f8cecc;strokeColor=#b85450;gradientColor=#ea6b66;" vertex="1" parent="1">
          <mxGeometry x="2350" y="860" width="40" height="40" as="geometry" />
        </mxCell>
        <mxCell id="nXGSX_u4DIBoH6PeZEtl-244" value="" style="endArrow=classic;html=1;rounded=0;exitX=0.024;exitY=0.794;exitDx=0;exitDy=0;exitPerimeter=0;entryX=1;entryY=0;entryDx=0;entryDy=0;" edge="1" parent="1" source="nXGSX_u4DIBoH6PeZEtl-239" target="nXGSX_u4DIBoH6PeZEtl-237">
          <mxGeometry width="50" height="50" relative="1" as="geometry">
            <mxPoint x="2290" y="760" as="sourcePoint" />
            <mxPoint x="2250" y="795" as="targetPoint" />
          </mxGeometry>
        </mxCell>
        <mxCell id="nXGSX_u4DIBoH6PeZEtl-246" value="" style="endArrow=classic;html=1;rounded=0;entryX=1;entryY=0;entryDx=0;entryDy=0;exitX=0.031;exitY=0.689;exitDx=0;exitDy=0;exitPerimeter=0;" edge="1" parent="1" source="nXGSX_u4DIBoH6PeZEtl-247" target="nXGSX_u4DIBoH6PeZEtl-243">
          <mxGeometry width="50" height="50" relative="1" as="geometry">
            <mxPoint x="2410" y="760" as="sourcePoint" />
            <mxPoint x="2450" y="795" as="targetPoint" />
          </mxGeometry>
        </mxCell>
        <mxCell id="nXGSX_u4DIBoH6PeZEtl-247" value="11" style="ellipse;whiteSpace=wrap;html=1;aspect=fixed;fillColor=#f5f5f5;strokeColor=#666666;gradientColor=#b3b3b3;" vertex="1" parent="1">
          <mxGeometry x="2440" y="790" width="40" height="40" as="geometry" />
        </mxCell>
        <mxCell id="nXGSX_u4DIBoH6PeZEtl-248" value="" style="endArrow=classic;html=1;rounded=0;exitX=0;exitY=1;exitDx=0;exitDy=0;" edge="1" parent="1" source="nXGSX_u4DIBoH6PeZEtl-243">
          <mxGeometry width="50" height="50" relative="1" as="geometry">
            <mxPoint x="2350" y="890" as="sourcePoint" />
            <mxPoint x="2330" y="925" as="targetPoint" />
          </mxGeometry>
        </mxCell>
        <mxCell id="nXGSX_u4DIBoH6PeZEtl-249" value="8" style="ellipse;whiteSpace=wrap;html=1;aspect=fixed;fillColor=#f5f5f5;strokeColor=#666666;gradientColor=#b3b3b3;" vertex="1" parent="1">
          <mxGeometry x="2300" y="920" width="40" height="40" as="geometry" />
        </mxCell>
        <mxCell id="nXGSX_u4DIBoH6PeZEtl-250" value="" style="endArrow=classic;html=1;rounded=0;" edge="1" parent="1">
          <mxGeometry width="50" height="50" relative="1" as="geometry">
            <mxPoint x="2480" y="820" as="sourcePoint" />
            <mxPoint x="2520" y="855" as="targetPoint" />
          </mxGeometry>
        </mxCell>
        <mxCell id="nXGSX_u4DIBoH6PeZEtl-251" value="13" style="ellipse;whiteSpace=wrap;html=1;aspect=fixed;fillColor=#f8cecc;strokeColor=#b85450;gradientColor=#ea6b66;" vertex="1" parent="1">
          <mxGeometry x="2510" y="850" width="40" height="40" as="geometry" />
        </mxCell>
        <mxCell id="nXGSX_u4DIBoH6PeZEtl-252" value="" style="endArrow=classic;html=1;rounded=0;entryX=0;entryY=0;entryDx=0;entryDy=0;exitX=1;exitY=1;exitDx=0;exitDy=0;" edge="1" parent="1" source="nXGSX_u4DIBoH6PeZEtl-251" target="nXGSX_u4DIBoH6PeZEtl-253">
          <mxGeometry width="50" height="50" relative="1" as="geometry">
            <mxPoint x="2550" y="880" as="sourcePoint" />
            <mxPoint x="2590" y="915" as="targetPoint" />
          </mxGeometry>
        </mxCell>
        <mxCell id="nXGSX_u4DIBoH6PeZEtl-253" value="15" style="ellipse;whiteSpace=wrap;html=1;aspect=fixed;fillColor=#f5f5f5;strokeColor=#666666;gradientColor=#b3b3b3;" vertex="1" parent="1">
          <mxGeometry x="2590" y="920" width="40" height="40" as="geometry" />
        </mxCell>
        <mxCell id="nXGSX_u4DIBoH6PeZEtl-254" value="" style="endArrow=classic;html=1;rounded=0;exitX=0;exitY=1;exitDx=0;exitDy=0;entryX=0.702;entryY=0.144;entryDx=0;entryDy=0;entryPerimeter=0;" edge="1" parent="1" source="nXGSX_u4DIBoH6PeZEtl-251" target="nXGSX_u4DIBoH6PeZEtl-255">
          <mxGeometry width="50" height="50" relative="1" as="geometry">
            <mxPoint x="2510" y="885" as="sourcePoint" />
            <mxPoint x="2500" y="910" as="targetPoint" />
          </mxGeometry>
        </mxCell>
        <mxCell id="nXGSX_u4DIBoH6PeZEtl-255" value="12" style="ellipse;whiteSpace=wrap;html=1;aspect=fixed;fillColor=#f5f5f5;strokeColor=#666666;gradientColor=#b3b3b3;" vertex="1" parent="1">
          <mxGeometry x="2470" y="920" width="40" height="40" as="geometry" />
        </mxCell>
      </root>
    </mxGraphModel>
  </diagram>
</mxfile>
